<svg xmlns="http://www.w3.org/2000/svg" width="56.418" height="56.498" viewBox="0 0 56.418 56.498">
  <path id="Path_55" data-name="Path 55" d="M1821.476-1094.847a28.209,28.209,0,0,1-28.438,28.117,28.326,28.326,0,0,1-27.979-28.339,28.293,28.293,0,0,1,28.458-28.157A28.168,28.168,0,0,1,1821.476-1094.847Zm-25.515-4.193c-.025-.362-.064-.723-.072-1.085-.022-.974-.223-1.19-1.216-1.2-1.061-.012-2.124,0-3.185,0-.513,0-1.027.005-1.539.031-.479.024-.769.255-.742.779.009.171,0,.342,0,.514q-.005,9.144-.01,18.288c0,.508,0,1.016,0,1.506.219.1.342.2.464.2,1.849.019,3.7.036,5.544.027a.643.643,0,0,0,.671-.74c0-.376.005-.753.006-1.13.007-3.493-.051-6.988.044-10.479a3.751,3.751,0,0,1,4.166-3.549,2.722,2.722,0,0,1,2.28,1.174,5.13,5.13,0,0,1,.712,1.987,26.216,26.216,0,0,1,.179,3.38c.018,2.774-.005,5.548-.005,8.322,0,.94.1,1.044,1.069,1.048q2.261.011,4.521-.006a8,8,0,0,0,.833-.092,7.6,7.6,0,0,0,.1-.85c-.009-4.247-.029-8.493-.037-12.739a11.585,11.585,0,0,0-.918-4.47,5.578,5.578,0,0,0-3.69-3.288,9.015,9.015,0,0,0-4.542-.22A7.928,7.928,0,0,0,1795.961-1099.041Zm-17.534,19.063c2.095,0,4.035.014,5.973-.022.188,0,.443-.289.536-.5a2.1,2.1,0,0,0,.072-.809c0-1.71-.006-3.42-.006-5.13q0-6.824,0-13.648c0-1.038-.155-1.219-1.163-1.232-1.5-.02-3.01-.024-4.515.007-.775.016-.867.151-.9.925-.008.17,0,.342,0,.513q0,9.389,0,18.778C1778.428-1080.793,1778.428-1080.491,1778.428-1079.978Zm3.3-31.838a3.845,3.845,0,0,0-3.887,3.855,3.914,3.914,0,0,0,3.86,3.812,3.918,3.918,0,0,0,3.863-3.829A3.834,3.834,0,0,0,1781.728-1111.816Z" transform="translate(-1765.059 1123.228)" fill="#fff"/>
</svg>
