<svg xmlns="http://www.w3.org/2000/svg" width="33.937" height="33.921" viewBox="0 0 33.937 33.921">
  <path id="Path_32" data-name="Path 32" d="M360.3,342.467a16.96,16.96,0,1,0,16.96,16.96A16.963,16.963,0,0,0,360.3,342.467Zm-9.037,8.956H369.34a1.394,1.394,0,0,1,1.388,1.21l-10.409,6.858-10.457-6.713A1.407,1.407,0,0,1,351.266,351.423Zm19.478,14.606a1.41,1.41,0,0,1-1.42,1.4H351.266a1.406,1.406,0,0,1-1.4-1.4V354.2l10.457,6.713,10.392-6.858a.824.824,0,0,1,.032.194Z" transform="translate(-343.326 -342.467)" fill="#fff"/>
</svg>
